<svg xmlns="http://www.w3.org/2000/svg" version="1.1" xmlns:xlink="http://www.w3.org/1999/xlink" xmlns:svgjs="http://svgjs.com/svgjs" width="1920" height="1080" preserveAspectRatio="none" viewBox="0 0 1920 1080"><g mask="url(&quot;#SvgjsMask1061&quot;)" fill="none"><rect width="1920" height="1080" x="0" y="0" fill="rgba(55, 65, 81, 1)"></rect><path d="M606.09 1288.61C767.38 1257.73 662.54 886.35 1093.74 848.52 1524.94 810.69 1796.93 375.73 2069.03 362.52" stroke="rgba(191, 219, 254, 1)" stroke-width="2"></path><path d="M181.16 1122.98C416.15 1120.05 595.2 865.56 1081.13 851.53 1567.07 837.5 1728.28 400.55 1981.11 387.13" stroke="rgba(191, 219, 254, 1)" stroke-width="2"></path><path d="M366.33 1086.06C668.13 1028.81 800.67 271.89 1280.36 264.87 1760.04 257.85 1958.29 500.54 2194.38 502.47" stroke="rgba(191, 219, 254, 1)" stroke-width="2"></path><path d="M327.74 1100.73C543.92 1029.27 585.47 413.69 908.04 398.81 1230.61 383.93 1198.19 533.81 1488.34 533.81 1778.49 533.81 1919.69 399.7 2068.64 398.81" stroke="rgba(191, 219, 254, 1)" stroke-width="2"></path><path d="M939.08 1179.36C1190.18 1090.89 1244.35 356.56 1602.44 346.27 1960.54 335.98 2084.76 631.53 2265.81 637.87" stroke="rgba(191, 219, 254, 1)" stroke-width="2"></path></g><defs><mask id="SvgjsMask1061"><rect width="1920" height="1080" fill="#ffffff"></rect></mask></defs></svg>